<svg xmlns="http://www.w3.org/2000/svg" version="1.1" xmlns:xlink="http://www.w3.org/1999/xlink" width="512" height="512" x="0" y="0" viewBox="0 0 512 512" style="enable-background:new 0 0 512 512" xml:space="preserve" class=""><g><g fill="#a4e7ff"><path d="M177.808 396.641a7.725 7.725 0 0 0-9.967 4.478l-11.388 29.967a7.726 7.726 0 1 0 14.444 5.489l11.388-29.967a7.725 7.725 0 0 0-4.477-9.967zM208.678 315.41a7.727 7.727 0 0 0-9.967 4.478l-19.191 50.5a7.726 7.726 0 1 0 14.445 5.489l19.191-50.5a7.726 7.726 0 0 0-4.478-9.967zM98.766 293.638l-59.771 42.67a7.727 7.727 0 0 0 8.979 12.577l59.771-42.67a7.727 7.727 0 0 0-8.979-12.577zM108.001 73.895 51.268 32.709a7.726 7.726 0 1 0-9.079 12.505L98.922 86.4a7.72 7.72 0 0 0 10.792-1.713 7.727 7.727 0 0 0-1.713-10.792zM474.81 34.332a7.724 7.724 0 0 0-10.78-1.788l-59.812 42.794a7.727 7.727 0 0 0 8.991 12.567l59.812-42.794a7.725 7.725 0 0 0 1.789-10.779zM394.521 322.031a7.727 7.727 0 1 0-11.07 10.783l58.329 59.884a7.707 7.707 0 0 0 5.535 2.335 7.728 7.728 0 0 0 5.534-13.118z" fill="#a4e7ff" opacity="1" data-original="#a4e7ff"></path></g><circle cx="23.978" cy="356.521" r="23.978" fill="#fbf198" opacity="1" data-original="#fbf198"></circle><circle cx="464.043" cy="404.478" r="23.978" fill="#84dccf" opacity="1" data-original="#4a66a0" class=""></circle><circle cx="27.328" cy="24.881" r="23.978" fill="#84dccf" opacity="1" data-original="#4a66a0" class=""></circle><circle cx="488.022" cy="24.881" r="23.978" fill="#fbf198" opacity="1" data-original="#fbf198"></circle><circle cx="149.374" cy="471.459" r="40.24" fill="#84dccf" opacity="1" data-original="#4a66a0" class=""></circle><path fill="#84dccf" d="M405.438 310.057c5.454-8.926 4.32-20.744-3.404-28.467l-18.927-18.927a7.102 7.102 0 0 1-1.327-8.226 139.88 139.88 0 0 0 8.111-19.559 7.1 7.1 0 0 1 6.752-4.87H423.4c12.804 0 23.183-10.38 23.183-23.183v-31.882c0-12.803-10.379-23.183-23.183-23.183h-26.756a7.1 7.1 0 0 1-6.752-4.871 139.992 139.992 0 0 0-8.112-19.558 7.099 7.099 0 0 1 1.327-8.226l18.927-18.927c9.053-9.053 9.053-23.732 0-32.786L379.49 44.85c-9.053-9.053-23.732-9.053-32.786 0l-18.927 18.927a7.098 7.098 0 0 1-8.225 1.326 139.88 139.88 0 0 0-19.559-8.111 7.1 7.1 0 0 1-4.87-6.752V23.484a23.111 23.111 0 0 0-6.79-16.393l-.915.094c.177-.153.348-.312.525-.465A23.095 23.095 0 0 0 271.94.301h-31.882c-12.803 0-23.183 10.379-23.183 23.183V50.24a7.1 7.1 0 0 1-4.87 6.752 140.05 140.05 0 0 0-19.559 8.111 7.1 7.1 0 0 1-8.226-1.326L165.294 44.85a23.08 23.08 0 0 0-15.728-6.775l-25.395 28.404 25.203 118.736 72.275 113.56 94.872 11.492 57.27 17.723z" opacity="1" data-original="#68a2df" class=""></path><path fill="#84dccf" d="M372.933 312.357c-125.951 0-228.055-102.104-228.055-228.055a229.01 229.01 0 0 1 4.688-46.211c-6.153-.175-12.361 2.062-17.057 6.758l-22.544 22.544c-9.053 9.054-9.053 23.732 0 32.786l18.927 18.927a7.098 7.098 0 0 1 1.326 8.225 139.988 139.988 0 0 0-8.111 19.558 7.1 7.1 0 0 1-6.752 4.871H88.599c-12.804 0-23.183 10.379-23.183 23.183v31.882c0 12.804 10.379 23.183 23.183 23.183h26.756a7.1 7.1 0 0 1 6.752 4.87 140.05 140.05 0 0 0 8.111 19.559 7.1 7.1 0 0 1-1.326 8.226l-18.927 18.927c-9.053 9.053-9.053 23.732 0 32.785l22.544 22.544c9.053 9.053 23.732 9.053 32.785 0l18.927-18.927a7.098 7.098 0 0 1 8.225-1.326 140 140 0 0 0 19.559 8.111 7.1 7.1 0 0 1 4.87 6.752v26.756c0 12.803 10.379 23.183 23.183 23.183h31.883a23.094 23.094 0 0 0 15.999-6.415l.009.001a23.116 23.116 0 0 0 7.175-16.769v-26.756a7.1 7.1 0 0 1 4.87-6.752 140.05 140.05 0 0 0 19.559-8.111 7.097 7.097 0 0 1 8.225 1.327l18.927 18.927c9.053 9.053 23.732 9.053 32.786 0l22.544-22.544a23.113 23.113 0 0 0 3.381-4.332 229.99 229.99 0 0 1-32.483 2.313z" opacity="1" data-original="#358cd9" class=""></path><path fill="#f8f8ff" d="M207.879 145.101a9.7 9.7 0 0 0-9.086-6.241h-.01a9.701 9.701 0 0 0-9.069 6.224l-33.268 87.35a7.726 7.726 0 1 0 14.44 5.499l6.39-16.778h42.787l6.324 16.757a7.73 7.73 0 0 0 7.23 5c.906 0 1.828-.161 2.726-.5a7.726 7.726 0 0 0 4.501-9.957zm-24.717 60.601 15.607-40.977 15.464 40.977zM348.333 138.859a7.726 7.726 0 0 0-7.726 7.726v88.598a7.726 7.726 0 1 0 15.452 0v-88.598a7.726 7.726 0 0 0-7.726-7.726zM290.689 138.859h-24.67c-4.153-.083-7.798 3.582-7.726 7.726v88.598a7.726 7.726 0 1 0 15.452 0v-30.8c5.655-.031 13.072-.066 16.943-.066 18.317 0 33.219-14.682 33.219-32.729s-14.901-32.729-33.218-32.729zm0 50.005c-3.848 0-11.153.035-16.798.065l-.119-34.618h16.917c9.63 0 17.766 7.911 17.766 17.276 0 9.366-8.136 17.277-17.766 17.277z" opacity="1" data-original="#f8f8ff" class=""></path></g></svg>