<svg xmlns="http://www.w3.org/2000/svg" version="1.1" xmlns:xlink="http://www.w3.org/1999/xlink" width="512" height="512" x="0" y="0" viewBox="0 0 512 512" style="enable-background:new 0 0 512 512" xml:space="preserve" class=""><g><path fill="#4e5660" d="M321.032 383.109H190.968l-8.97 60.202h148.004z" opacity="1" data-original="#4e5660"></path><path fill="#c6c6c6" d="M354.192 483.969H157.808c-8.553 0-14.703-8.222-12.288-16.426l1.786-6.067a25.313 25.313 0 0 1 24.283-18.165h168.823a25.313 25.313 0 0 1 24.283 18.165l1.786 6.067c2.414 8.205-3.736 16.426-12.289 16.426z" opacity="1" data-original="#c6c6c6" class=""></path><path fill="#9aa3b1" d="M238.706 443.311h-67.118a25.313 25.313 0 0 0-24.283 18.165l-1.786 6.066c-2.415 8.205 3.735 16.426 12.288 16.426h90.952c-10.335-10.55-13.119-29.442-10.053-40.657z" opacity="1" data-original="#9aa3b1"></path><path fill="#4e5660" d="M450.933 383.109H61.067C27.341 383.109 0 355.768 0 322.042V89.098c0-33.726 27.341-61.067 61.067-61.067h389.866c33.726 0 61.067 27.341 61.067 61.067v232.944c0 33.726-27.341 61.067-61.067 61.067z" opacity="1" data-original="#4e5660"></path><path fill="#383c43" d="M165.36 28.031H61.067C27.341 28.031 0 55.371 0 89.098v232.944c0 33.726 27.341 61.067 61.067 61.067h150.41c-58.045-60.747-83.592-231.269-46.117-355.078z" opacity="1" data-original="#383c43"></path><path fill="#f7ef87" d="M41.768 314.341V96.799c0-14.912 12.088-27 27-27h374.464c14.912 0 27 12.088 27 27v217.542c0 14.912-12.088 27-27 27H68.768c-14.912 0-27-12.088-27-27z" opacity="1" data-original="#f7ef87"></path><path fill="#efd176" d="M183.861 341.341c-32.551-67.666-45.766-177.18-28.514-271.542H68.768c-14.912 0-27 12.088-27 27v217.542c0 14.912 12.088 27 27 27z" opacity="1" data-original="#efd176"></path><path fill="#383c43" d="M443.232 69.799H256v271.542h187.232c14.912 0 27-12.088 27-27V96.799c0-14.912-12.088-27-27-27z" opacity="1" data-original="#383c43"></path><path fill="#c6c6c6" d="M0 304.954v17.088c0 33.726 27.341 61.067 61.067 61.067h389.866c33.726 0 61.067-27.341 61.067-61.067v-17.088z" opacity="1" data-original="#c6c6c6" class=""></path><path fill="#9aa3b1" d="M0 304.954v17.088c0 33.726 27.341 61.067 61.067 61.067h150.41c-17.081-17.876-31.346-45.25-42.021-78.155z" opacity="1" data-original="#9aa3b1"></path><circle cx="256" cy="344.032" r="22.327" fill="#ffffff" opacity="1" data-original="#ffffff"></circle><g fill="#4e5660"><path d="M114.953 226.337a7.478 7.478 0 0 1-5.304-2.197l-31.835-31.835a7.5 7.5 0 0 1 0-10.607l31.835-31.835a7.5 7.5 0 0 1 10.607 10.606l-26.532 26.532 26.532 26.532a7.5 7.5 0 0 1 0 10.606 7.47 7.47 0 0 1-5.303 2.198zM182.814 226.337a7.5 7.5 0 0 1-5.304-12.803l26.532-26.532-26.532-26.532a7.5 7.5 0 0 1 10.607-10.606l31.835 31.835a7.5 7.5 0 0 1 0 10.607l-31.835 31.835a7.477 7.477 0 0 1-5.303 2.196zM131.003 243.628a7.5 7.5 0 0 1-7.046-10.067l35.76-98.248a7.5 7.5 0 1 1 14.095 5.13l-35.76 98.249a7.506 7.506 0 0 1-7.049 4.936z" fill="#4e5660" opacity="1" data-original="#4e5660"></path></g><path fill="#ffffff" d="M423.649 223.231H392.94a7.5 7.5 0 0 1 0-15h30.709c4.143 0 7.5 3.358 7.5 7.5s-3.357 7.5-7.5 7.5z" opacity="1" data-original="#ffffff"></path><path fill="#a3defe" d="M365.227 223.231h-62.645a7.5 7.5 0 0 1 0-15h62.645a7.5 7.5 0 0 1 0 15zM396.456 251.329h-38.21c-4.143 0-7.5-3.358-7.5-7.5s3.357-7.5 7.5-7.5h38.21c4.143 0 7.5 3.358 7.5 7.5s-3.357 7.5-7.5 7.5z" opacity="1" data-original="#a3defe"></path><path fill="#ffffff" d="M330.532 251.329h-27.95a7.5 7.5 0 0 1 0-15h27.95c4.143 0 7.5 3.358 7.5 7.5s-3.357 7.5-7.5 7.5z" opacity="1" data-original="#ffffff"></path><path fill="#89d47f" d="M412.989 195.133h-56.69a7.5 7.5 0 0 1 0-15h56.69c4.143 0 7.5 3.358 7.5 7.5s-3.357 7.5-7.5 7.5z" opacity="1" data-original="#89d47f"></path><path fill="#e8899e" d="M328.586 195.133h-26.004a7.5 7.5 0 0 1 0-15h26.004a7.5 7.5 0 0 1 0 15zM423.649 167.034h-32.431c-4.143 0-7.5-3.358-7.5-7.5s3.357-7.5 7.5-7.5h32.431c4.143 0 7.5 3.358 7.5 7.5s-3.357 7.5-7.5 7.5z" opacity="1" data-original="#e8899e"></path><path fill="#ffffff" d="M363.506 167.034h-60.924a7.5 7.5 0 0 1 0-15h60.924a7.5 7.5 0 0 1 0 15z" opacity="1" data-original="#ffffff"></path><path fill="#89d47f" d="M392.779 138.936h-34.533c-4.143 0-7.5-3.358-7.5-7.5s3.357-7.5 7.5-7.5h34.533c4.143 0 7.5 3.358 7.5 7.5s-3.357 7.5-7.5 7.5z" opacity="1" data-original="#89d47f"></path><path fill="#a3defe" d="M330.532 138.936h-27.95a7.5 7.5 0 0 1 0-15h27.95c4.143 0 7.5 3.358 7.5 7.5s-3.357 7.5-7.5 7.5z" opacity="1" data-original="#a3defe"></path></g></svg>