<svg width="76" height="76" viewBox="0 0 76 76" fill="none" xmlns="http://www.w3.org/2000/svg">
<circle cx="38" cy="38" r="38" fill="#84DCCF"/>
<g clip-path="url(#clip0_789_1879)">
<path d="M16.1381 30.7341C15.7896 34.6276 14.6786 38.3844 12.9357 41.7471C11.1266 45.2506 13.6938 49.4242 17.6367 49.4242H18.8589L21.6681 47.1426C24.3461 44.9677 25.5419 41.4513 24.745 38.0948C24.393 36.6125 23.6699 35.2441 22.6435 34.1183C21.6172 32.9924 20.3214 32.1461 18.8779 31.6588L16.1381 30.7341Z" fill="#3F210F"/>
<path d="M63.0641 41.747C61.322 38.3855 60.2105 34.6262 59.8619 30.7317C59.863 30.7481 59.863 30.7645 59.8619 30.7809C59.863 30.8078 59.863 30.8359 59.863 30.8629C53.1264 32.325 52.5788 34.8585 51.9304 39.8521C51.4133 43.8347 53.5144 47.699 57.1411 49.424H58.3632C62.3061 49.4242 64.8734 45.2505 63.0641 41.747Z" fill="#3F210F"/>
<path d="M38 9C37.5264 9 37.0565 9.01552 36.5904 9.0452C32.5485 12.6099 30.1278 17.8937 32.7559 25.3722L59.8607 30.719C59.8607 30.7236 59.8618 30.7271 59.8618 30.7319C59.794 18.7523 50.0647 9 38 9Z" fill="#3F210F"/>
<path d="M30.9931 10.1483C29.8859 10.5233 28.6812 10.3218 27.7275 9.64571C27.1344 9.22442 26.4245 8.9987 25.697 9.00001C24.0981 9.00001 22.7541 10.0658 22.3254 11.5175C22.1584 12.0828 21.6687 12.4862 21.0802 12.522C19.3272 12.6289 17.9028 14.0552 17.7949 15.8076C17.7493 16.5528 17.9355 17.2512 18.2881 17.8382C18.9021 18.8588 18.9103 20.1312 18.3842 21.1987C16.9629 24.0765 16.1568 27.3127 16.1381 30.7341C16.1381 30.7295 16.1392 30.7236 16.1392 30.719L32.7557 25.3722C32.9476 19.0903 34.3782 13.3864 36.5903 9.0452C34.6843 9.16575 32.8023 9.53665 30.9931 10.1483Z" fill="#3F210F"/>
<path d="M59.863 30.863C59.863 33.7045 57.5595 36.0069 54.718 36.0069C54.5698 36.0069 54.4216 35.9999 54.274 35.9858C47.3151 34.9828 48.4869 26.3122 53.4971 25.718H54.6277C57.4441 25.718 59.863 28.0414 59.863 30.863Z" fill="#FFDFCF"/>
<path d="M53.4971 25.8656V25.718H52.0523C50.4799 25.718 48.9282 25.359 47.5156 24.6684C46.1029 23.9778 44.8665 22.9739 43.9007 21.733C42.6615 20.1414 40.2815 20.0806 38.9607 21.5948C37.3308 23.463 35.1637 24.7822 32.7557 25.3723C32.7547 25.4069 32.7645 25.4434 32.7521 25.4758C30.6595 30.975 30.2399 36.1201 35.0585 40.6364C40.6708 43.6779 46.435 44.0004 52.4051 40.6364C55.0254 36.2012 55.4624 30.7058 53.4971 25.8656Z" fill="#FFDFCF"/>
<path d="M22.5029 25.718C27.5131 26.6343 27.8939 34.8656 21.726 35.9858C18.7794 36.2687 16.1369 33.9129 16.1369 30.863C16.1369 28.0464 18.551 25.718 21.3722 25.718H22.5029Z" fill="#FFDFCF"/>
<path d="M32.7558 25.3723C31.8185 25.602 30.8569 25.7182 29.8918 25.7182H22.5029V25.8658C20.5549 30.6632 20.9457 36.1524 23.5949 40.6364C27.1644 42.9951 30.9972 42.8864 35.0586 40.6364C33.2615 35.8517 32.6014 30.4381 32.7558 25.3723Z" fill="#FFDFCF"/>
<path d="M54.5891 40.6365H30.5985C25.8496 46.0926 24.7445 54.0122 28.6363 61.7274C35.3004 64.191 48.9594 64.1069 55.6403 61.7274L57.7739 44.2325C58.007 42.3214 56.5143 40.6365 54.5891 40.6365Z" fill="#DCDCDC"/>
<path d="M30.5985 40.6365H21.4108C19.4857 40.6365 17.9929 42.3214 18.2261 44.2325L20.3597 61.7274C21.3678 63.4239 25.0639 64.917 28.6362 61.7274C26.98 55.0291 27.7594 46.9637 30.5985 40.6365Z" fill="#DCDCDC"/>
<path d="M39.697 55.6771C41.9393 54.7492 43.0049 52.1793 42.077 49.937C41.1491 47.6947 38.5792 46.6291 36.3369 47.557C34.0945 48.4849 33.029 51.0548 33.9569 53.2971C34.8848 55.5394 37.4547 56.605 39.697 55.6771Z" fill="#71717A"/>
<path d="M46.9015 30.7646C48.8009 30.7646 50.3405 31.9902 50.3405 33.503C50.3405 35.0156 48.8009 36.2425 46.9015 36.2425C45.0021 36.2425 43.4614 35.0158 43.4614 33.503C43.4614 31.9904 45.0021 30.7646 46.9015 30.7646ZM28.2571 30.7646C30.1577 30.7646 31.6973 31.9902 31.6973 33.503C31.6973 35.0156 30.1577 36.2425 28.2571 36.2425C26.3578 36.2425 24.8181 35.0158 24.8181 33.503C24.8181 31.9904 26.3579 30.7646 28.2571 30.7646Z" fill="#FFA1AC"/>
<path d="M30.262 28.5818C30.1466 28.5818 30.0323 28.6045 29.9257 28.6487C29.819 28.6929 29.7222 28.7576 29.6406 28.8392C29.5589 28.9208 29.4942 29.0177 29.45 29.1243C29.4059 29.2309 29.3831 29.3452 29.3831 29.4606V30.8667C29.3831 31.0998 29.4757 31.3233 29.6406 31.4881C29.8054 31.6529 30.0289 31.7455 30.262 31.7455C30.4951 31.7455 30.7186 31.6529 30.8834 31.4881C31.0482 31.3233 31.1408 31.0998 31.1408 30.8667V29.4606C31.1408 29.3452 31.1181 29.2309 31.0739 29.1243C31.0298 29.0177 30.965 28.9208 30.8834 28.8392C30.8018 28.7576 30.7049 28.6929 30.5983 28.6487C30.4917 28.6045 30.3774 28.5818 30.262 28.5818ZM44.8967 28.5818C44.7813 28.5818 44.667 28.6045 44.5604 28.6487C44.4537 28.6929 44.3569 28.7576 44.2752 28.8392C44.1936 28.9208 44.1289 29.0177 44.0847 29.1243C44.0406 29.2309 44.0178 29.3452 44.0178 29.4606V30.8667C44.0178 31.0998 44.1104 31.3233 44.2752 31.4881C44.4401 31.6529 44.6636 31.7455 44.8967 31.7455C45.1298 31.7455 45.3533 31.6529 45.5181 31.4881C45.6829 31.3233 45.7755 31.0998 45.7755 30.8667V29.4606C45.7755 29.3452 45.7528 29.2309 45.7086 29.1243C45.6644 29.0177 45.5997 28.9208 45.5181 28.8392C45.4365 28.7576 45.3396 28.6929 45.233 28.6487C45.1264 28.6045 45.0121 28.5818 44.8967 28.5818ZM40.0866 30.1619C39.9997 30.0861 39.8986 30.0281 39.7892 29.9914C39.6798 29.9546 39.5642 29.9397 39.4491 29.9476C39.334 29.9555 39.2215 29.986 39.1182 30.0374C39.0148 30.0887 38.9226 30.1599 38.8468 30.2469C38.1771 31.0153 36.9834 31.0177 36.3139 30.2477C36.1597 30.0765 35.9444 29.9727 35.7144 29.9587C35.4844 29.9447 35.2581 30.0215 35.0842 30.1727C34.9103 30.3239 34.8028 30.5373 34.7847 30.767C34.7666 30.9967 34.8394 31.2244 34.9875 31.4009C35.3099 31.7717 35.708 32.0691 36.1552 32.2728C36.6023 32.4765 37.0879 32.5819 37.5793 32.5819C38.0706 32.5818 38.5562 32.4764 39.0033 32.2728C39.4505 32.0693 39.8488 31.7722 40.1715 31.4017C40.2473 31.3147 40.3053 31.2137 40.3421 31.1043C40.3789 30.9949 40.3938 30.8794 40.3859 30.7642C40.378 30.6491 40.3475 30.5367 40.2962 30.4333C40.2448 30.33 40.1736 30.2378 40.0866 30.1619Z" fill="#38434C"/>
<path d="M54.5892 39.7576H31.0114C30.1153 40.1149 29.9067 40.72 30.2219 41.5151H54.5892C55.9861 41.5151 57.0708 42.7396 56.9015 44.1259L54.5106 63.73C54.4966 63.8446 54.5054 63.9608 54.5363 64.072C54.5672 64.1831 54.6198 64.2871 54.6909 64.378C54.762 64.4689 54.8504 64.5449 54.9509 64.6016C55.0514 64.6583 55.1621 64.6947 55.2766 64.7087C55.3912 64.7226 55.5074 64.7139 55.6186 64.683C55.7297 64.652 55.8337 64.5995 55.9246 64.5283C56.0155 64.4572 56.0915 64.3688 56.1482 64.2683C56.2049 64.1678 56.2413 64.0571 56.2553 63.9425L58.6463 44.3387C58.9426 41.9092 57.0444 39.7576 54.5892 39.7576Z" fill="#71717A"/>
<path d="M21.4109 39.7576C18.9634 39.7576 17.0564 41.9014 17.3538 44.3389L19.7091 63.6498C19.7679 64.1316 20.2061 64.4741 20.6878 64.416C20.9191 64.3877 21.1298 64.2687 21.2735 64.0852C21.4171 63.9016 21.482 63.6686 21.4538 63.4372L19.0984 44.126C18.9292 42.7395 20.0142 41.5152 21.4109 41.5152H30.2219C30.4648 40.9205 30.7282 40.3343 31.0114 39.7577L21.4109 39.7576Z" fill="#71717A"/>
<path d="M59.9697 64.3637C59.9697 62.9072 58.7897 61.7273 57.3333 61.7273H25.0747C22.0646 61.7273 21.2667 62.906 21.2667 64.3637C21.2667 65.8201 22.006 67.0001 25.0747 67.0001H57.3333C58.788 67.0001 59.9697 65.8213 59.9697 64.3637Z" fill="#71717A"/>
<path d="M22.4384 64.3637C22.4384 62.9061 23.6202 61.7273 25.0748 61.7273H18.6667C17.2121 61.7273 16.0303 62.906 16.0303 64.3637C16.0303 65.8201 17.2103 67.0001 18.6667 67.0001H25.0748C23.6184 67.0001 22.4384 65.8201 22.4384 64.3637Z" fill="#71717A"/>
</g>
<defs>
<clipPath id="clip0_789_1879">
<rect width="58" height="58" fill="white" transform="translate(9 9)"/>
</clipPath>
</defs>
</svg>
