<svg width="48" height="48" viewBox="0 0 48 48" fill="none" xmlns="http://www.w3.org/2000/svg">
<g clip-path="url(#clip0_659_523)">
<path d="M40.8 0H7.2C3.22355 0 0 3.22355 0 7.2V40.8C0 44.7765 3.22355 48 7.2 48H40.8C44.7765 48 48 44.7765 48 40.8V7.2C48 3.22355 44.7765 0 40.8 0Z" fill="#84DCCF"/>
<path d="M31.4062 46.7814C32.7187 46.7814 32.5312 48.3751 32.5312 48.3751H15.4687C15.4687 48.3751 15.2812 46.7814 16.5937 46.7814C17.8124 46.7814 18.0937 46.2189 18.0937 45.6564L17.9999 40.9689C11.3437 42.4689 9.93744 38.3439 9.93744 38.3439C8.81244 35.5314 7.31244 34.8751 7.31244 34.8751C5.06244 33.3751 7.40619 33.3751 7.40619 33.3751C9.84369 33.5626 11.1562 35.8126 11.1562 35.8126C13.2187 39.4689 16.6874 38.4376 18.0937 37.8751C18.2812 36.2814 18.9374 35.2501 19.5937 34.5939C14.2499 34.0314 8.71869 31.9689 8.71869 22.7814C8.71869 20.1564 9.65619 18.0001 11.1562 16.3126C10.8749 15.7501 10.1249 13.3126 11.4374 10.0314C11.4374 10.0314 13.4062 9.37512 17.9999 12.4689C21.9374 11.3439 26.0624 11.3439 29.9999 12.4689C34.5937 9.37512 36.5624 10.0314 36.5624 10.0314C37.8749 13.3126 37.1249 15.7501 36.8437 16.3126C38.3437 18.0001 39.2812 20.1564 39.2812 22.7814C39.2812 31.9689 33.6562 34.0314 28.3124 34.5939C29.2499 35.3439 29.9999 36.8439 29.9999 39.0939L29.9062 45.6564C29.9062 46.2189 30.1874 46.7814 31.4062 46.7814Z" fill="#F5F5F5"/>
</g>
<defs>
<clipPath id="clip0_659_523">
<rect width="48" height="48" fill="white"/>
</clipPath>
</defs>
</svg>
