<svg width="48" height="48" viewBox="0 0 48 48" fill="none" xmlns="http://www.w3.org/2000/svg">
<g clip-path="url(#clip0_659_510)">
<path d="M40.8 0H7.2C3.22355 0 0 3.22355 0 7.2V40.8C0 44.7765 3.22355 48 7.2 48H40.8C44.7765 48 48 44.7765 48 40.8V7.2C48 3.22355 44.7765 0 40.8 0Z" fill="#84DCCF"/>
<path d="M14.8125 36.6562V23.3438L7.125 17.4375V33.8438C7.125 35.7188 8.0625 36.6562 9.9375 36.6562" fill="#F5F5F5"/>
<path d="M14.4375 23.25L24 30.4688L33.5625 23.25V14.0625L24 21.2812L14.4375 14.0625" fill="#F5F5F5"/>
<path d="M33.1875 36.6562V23.3438L40.875 17.4375V33.8438C40.875 35.7188 39.9375 36.6562 38.0625 36.6562" fill="#F5F5F5"/>
<path d="M7.125 17.6249L14.8125 23.5312V14.3437L12 12.1874C9.46875 10.2187 7.125 12.1874 7.125 14.6249" fill="#F5F5F5"/>
<path d="M40.875 17.6249L33.1875 23.5312V14.3437L36 12.1874C38.5312 10.2187 40.875 12.1874 40.875 14.6249" fill="#F5F5F5"/>
</g>
<defs>
<clipPath id="clip0_659_510">
<rect width="48" height="48" fill="white"/>
</clipPath>
</defs>
</svg>
