<svg width="64" height="64" viewBox="0 0 64 64" fill="none" xmlns="http://www.w3.org/2000/svg">
<g clip-path="url(#clip0_861_266)">
<rect width="64" height="64" rx="4" fill="#F5F5F5"/>
<path d="M32 64C49.6731 64 64 49.6731 64 32C64 14.3269 49.6731 0 32 0C14.3269 0 0 14.3269 0 32C0 49.6731 14.3269 64 32 64Z" fill="#6933DC"/>
<path d="M40.3478 25.0435H43.826C44.9786 25.0435 45.913 24.1091 45.913 22.9566C45.913 21.804 44.9786 20.8696 43.826 20.8696H32.6956C31.543 20.8696 30.6086 21.804 30.6086 22.9566C30.6086 24.1091 31.543 25.0435 32.6956 25.0435H36.1739V34.087C36.1739 35.2396 37.1083 36.174 38.2608 36.174C39.4134 36.174 40.3478 35.2396 40.3478 34.087V25.0435Z" fill="#F5F5F5"/>
<path d="M20.8695 29.9131C20.8695 28.7606 21.8039 27.8262 22.9565 27.8262C24.109 27.8262 25.0434 28.7606 25.0434 29.9131V41.0436C25.0434 42.1961 24.109 43.1305 22.9565 43.1305C21.8039 43.1305 20.8695 42.1961 20.8695 41.0436V29.9131Z" fill="#F5F5F5"/>
<path d="M20.8695 22.9566C20.8695 21.804 21.8039 20.8696 22.9565 20.8696C24.109 20.8696 25.0434 21.804 25.0434 22.9566C25.0434 24.1091 24.109 25.0435 22.9565 25.0435C21.8039 25.0435 20.8695 24.1091 20.8695 22.9566Z" fill="#F5F5F5"/>
<path d="M38.2609 38.9565C37.1084 38.9565 36.174 39.8909 36.174 41.0435C36.174 42.1961 37.1084 43.1305 38.2609 43.1305C39.4135 43.1305 40.3479 42.1961 40.3479 41.0435C40.3479 39.8909 39.4135 38.9565 38.2609 38.9565Z" fill="#F5F5F5"/>
</g>
<defs>
<clipPath id="clip0_861_266">
<rect width="64" height="64" rx="4" fill="white"/>
</clipPath>
</defs>
</svg>
