<svg xmlns="http://www.w3.org/2000/svg" version="1.1" xmlns:xlink="http://www.w3.org/1999/xlink" width="512" height="512" x="0" y="0" viewBox="0 0 512 512" style="enable-background:new 0 0 512 512" xml:space="preserve" class=""><g><path fill="#3f210f" d="M63.012 191.86c-3.076 34.37-12.884 67.533-28.269 97.218-15.97 30.927 6.692 67.77 41.498 67.77H87.03l24.799-20.141c23.64-19.199 34.196-50.24 27.161-79.87a79.296 79.296 0 0 0-51.792-56.814z" opacity="1" data-original="#df7d37" class=""></path><path fill="#3f210f" d="M477.256 289.078c-15.379-29.674-25.191-62.86-28.268-97.239.01.145.01.29 0 .434.01.238.01.486.01.724-59.468 12.907-64.302 35.272-70.026 79.353-4.565 35.157 13.983 69.269 45.998 84.497h10.788c34.806.002 57.469-36.842 41.498-67.769z" opacity="1" data-original="#f69960" class=""></path><path fill="#3f210f" d="M256 0c-4.181 0-8.329.137-12.443.399-35.681 31.468-57.05 78.111-33.85 144.128l239.27 47.199c0 .041.01.072.01.114C448.388 86.089 362.502 0 256 0z" opacity="1" data-original="#f69960" class=""></path><path fill="#3f210f" d="M194.146 10.137c-9.774 3.31-20.408 1.531-28.827-4.437A30.86 30.86 0 0 0 147.394 0c-14.114 0-25.978 9.408-29.763 22.223-1.474 4.991-5.797 8.552-10.992 8.868-15.475.943-28.049 13.534-29.001 29.004-.403 6.578 1.241 12.743 4.354 17.925 5.42 9.009 5.492 20.242.848 29.665-12.547 25.404-19.663 53.972-19.828 84.175 0-.041.01-.093.01-.134l146.684-47.199C211.4 89.073 224.028 38.721 243.556.399a192.136 192.136 0 0 0-49.41 9.738z" opacity="1" data-original="#df7d37" class=""></path><path fill="#ffdfcf" d="M448.998 192.998c0 25.083-20.335 45.408-45.418 45.408a41.14 41.14 0 0 1-3.92-.186c-61.43-8.854-51.086-85.395-6.858-90.64h9.981c24.862 0 46.215 20.51 46.215 45.418z" opacity="1" data-original="#ffcebf" class=""></path><path fill="#ffdfcf" d="M392.802 148.883v-1.303h-12.754a91.193 91.193 0 0 1-71.959-35.178c-10.939-14.05-31.949-14.587-43.608-1.22a106.254 106.254 0 0 1-54.775 33.346c-.009.305.077.628-.032.914-18.473 48.544-22.177 93.963 20.36 133.831 49.543 26.849 100.427 29.696 153.128 0 23.131-39.152 26.989-87.663 9.64-130.39z" opacity="1" data-original="#ffdfcf" class=""></path><path fill="#ffdfcf" d="M119.198 147.58c44.228 8.089 47.59 80.751-6.858 90.64-26.011 2.497-49.338-18.299-49.338-45.222 0-24.864 21.31-45.418 46.215-45.418z" opacity="1" data-original="#ffb09e" class=""></path><path fill="#ffdfcf" d="M209.707 144.527a106.225 106.225 0 0 1-25.283 3.053h-65.226v1.303c-17.196 42.35-13.746 90.806 9.64 130.389 31.51 20.822 65.344 19.862 101.197 0-15.864-42.237-21.691-90.026-20.328-134.745z" opacity="1" data-original="#ffcebf" class=""></path><path fill="#def5ff" d="M402.442 279.273H190.663c-41.922 48.164-51.677 118.075-17.322 186.182 58.828 21.748 179.404 21.005 238.38 0l18.835-154.438c2.058-16.87-11.119-31.744-28.114-31.744z" opacity="1" data-original="#def5ff" class=""></path><path fill="#def5ff" d="M190.663 279.273h-81.105c-16.994 0-30.172 14.874-28.114 31.744l18.835 154.438c8.899 14.976 41.527 28.156 73.061 0-14.62-59.13-7.74-130.328 17.323-186.182z" opacity="1" data-original="#c4e8fe" class=""></path><circle cx="256" cy="376.242" r="38.788" fill="#84dccf" transform="rotate(-22.48 255.986 375.848)" opacity="1" data-original="#565f85" class=""></circle><path fill="#ffa1ac" d="M334.579 192.129c16.767 0 30.358 10.819 30.358 24.173 0 13.353-13.591 24.183-30.358 24.183s-30.368-10.829-30.368-24.183c0-13.353 13.601-24.173 30.368-24.173zM169.994 192.129c16.777 0 30.368 10.819 30.368 24.173 0 13.353-13.591 24.183-30.368 24.183-16.767 0-30.358-10.829-30.358-24.183 0-13.353 13.592-24.173 30.358-24.173z" opacity="1" data-original="#ffa1ac" class=""></path><g fill="#38434c"><path d="M187.692 172.86a7.758 7.758 0 0 0-7.758 7.758v12.412a7.758 7.758 0 0 0 15.516 0v-12.412a7.758 7.758 0 0 0-7.758-7.758zM316.881 172.86a7.758 7.758 0 0 0-7.758 7.758v12.412a7.758 7.758 0 0 0 15.516 0v-12.412a7.758 7.758 0 0 0-7.758-7.758zM274.42 186.809a7.757 7.757 0 0 0-10.945.75c-5.912 6.783-16.449 6.804-22.359.007a7.759 7.759 0 0 0-11.709 10.18 30.309 30.309 0 0 0 22.879 10.425 30.35 30.35 0 0 0 22.883-10.418 7.755 7.755 0 0 0-.749-10.944z" fill="#38434c" opacity="1" data-original="#38434c" class=""></path></g><path fill="#84dccf" d="M402.443 271.515H194.308c-7.911 3.154-9.752 8.496-6.97 15.515h215.105c12.331 0 21.906 10.809 20.412 23.047l-21.106 173.057a7.757 7.757 0 0 0 6.762 8.639 7.757 7.757 0 0 0 8.639-6.763l21.107-173.055c2.616-21.446-14.141-40.44-35.814-40.44z" opacity="1" data-original="#565f85" class=""></path><path fill="#84dccf" d="M109.558 271.515c-21.605 0-38.439 18.925-35.814 40.442l20.792 170.469c.519 4.253 4.387 7.276 8.639 6.763a7.759 7.759 0 0 0 6.762-8.64L89.145 310.078c-1.494-12.24 8.084-23.047 20.413-23.047h77.78a247.235 247.235 0 0 1 6.97-15.515h-84.75z" opacity="1" data-original="#3d3e65" class=""></path><path fill="#84dccf" d="M449.939 488.727c0-12.857-10.416-23.273-23.273-23.273H141.901c-26.572 0-33.616 10.405-33.616 23.273 0 12.857 6.527 23.273 33.616 23.273h284.765c12.842 0 23.273-10.406 23.273-23.273z" opacity="1" data-original="#3d3e65" class=""></path><path fill="#84dccf" d="M118.629 488.727c0-12.867 10.432-23.273 23.273-23.273H85.334c-12.841 0-23.273 10.405-23.273 23.273 0 12.857 10.416 23.273 23.273 23.273h56.568c-12.857 0-23.273-10.416-23.273-23.273z" opacity="1" data-original="#323255" class=""></path></g></svg>