<svg xmlns="http://www.w3.org/2000/svg" version="1.1" xmlns:xlink="http://www.w3.org/1999/xlink" width="512" height="512" x="0" y="0" viewBox="0 0 682.667 682.667" style="enable-background:new 0 0 512 512" xml:space="preserve" class=""><g><defs><clipPath id="a" clipPathUnits="userSpaceOnUse"><path d="M0 512h512V0H0Z" fill="#000000" opacity="1" data-original="#000000"></path></clipPath></defs><g clip-path="url(#a)" transform="matrix(1.33333 0 0 -1.33333 0 682.667)"><path d="M0 0h-57.175c-6.799 0-12.362 5.562-12.362 12.362v44.641c0 6.799 5.563 12.362 12.362 12.362H0c6.8 0 12.362-5.563 12.362-12.362V12.362C12.362 5.562 6.8 0 0 0" style="fill-opacity:1;fill-rule:nonzero;stroke:none" transform="translate(499.638 64.643)" fill="#36d49b" data-original="#80e0b7" class="" opacity="1"></path><path d="M0 0h-57.175c-6.799 0-12.362 5.562-12.362 12.362v44.641c0 6.799 5.563 12.362 12.362 12.362H0c6.8 0 12.362-5.563 12.362-12.362V12.362C12.362 5.562 6.8 0 0 0" style="fill-opacity:1;fill-rule:nonzero;stroke:none" transform="translate(499.638 173.877)" fill="#5ad6ff" data-original="#a4e7ff" class="" opacity="1"></path><path d="M0 0h-57.175c-6.799 0-12.362 5.563-12.362 12.362v44.642c0 6.799 5.563 12.362 12.362 12.362H0c6.8 0 12.362-5.563 12.362-12.362V12.362C12.362 5.563 6.8 0 0 0" style="fill-opacity:1;fill-rule:nonzero;stroke:none" transform="translate(499.638 283.462)" fill="#f85647" data-original="#fd7a6e" class="" opacity="1"></path><path d="M0 0h-43.954c-6.799 0-12.362-5.563-12.362-12.362v-44.642c0-6.799 5.563-12.362 12.362-12.362H0Z" style="fill-opacity:1;fill-rule:nonzero;stroke:none" transform="translate(486.417 352.828)" fill="#f85647" data-original="#f85647" class="" opacity="1"></path><path d="M0 0h-43.954c-6.799 0-12.362-5.563-12.362-12.362v-44.641c0-6.8 5.563-12.362 12.362-12.362H0Z" style="fill-opacity:1;fill-rule:nonzero;stroke:none" transform="translate(486.417 243.242)" fill="#5ad6ff" data-original="#5ad6ff" class="" opacity="1"></path><path d="M0 0h-43.954c-6.799 0-12.362-5.562-12.362-12.362v-44.641c0-6.8 5.563-12.362 12.362-12.362H0Z" style="fill-opacity:1;fill-rule:nonzero;stroke:none" transform="translate(486.417 134.008)" fill="#36d49b" data-original="#36d49b" class="" opacity="1"></path><path d="M0 0h-307.248c-31.003 0-56.369 25.366-56.369 56.369v399.21c0 31.003 25.366 56.369 56.369 56.369H0c31.003 0 56.369-25.366 56.369-56.369V56.369C56.369 25.366 31.003 0 0 0" style="fill-opacity:1;fill-rule:nonzero;stroke:none" transform="translate(403.371 .076)" fill="#84dccf" data-original="#bd9cde" class="" opacity="1"></path><path d="M0 0v399.21c0 31.003 25.366 56.369 56.369 56.369H-56.156c-31.003 0-56.369-25.366-56.369-56.369V0c0-31.003 25.366-56.369 56.369-56.369H56.369C25.366-56.369 0-31.003 0 0" style="fill-opacity:1;fill-rule:nonzero;stroke:none" transform="translate(152.28 56.445)" fill="#84dccf" data-original="#a57cd2" class="" opacity="1"></path><path d="M0 0c0-10.415-8.522-18.937-18.937-18.937h-52.001c-10.416 0-18.937 8.522-18.937 18.937 0 10.416 8.521 18.937 18.937 18.937h52.001C-8.522 18.937 0 10.416 0 0" style="fill-opacity:1;fill-rule:nonzero;stroke:none" transform="translate(89.875 406.764)" fill="#f0f0f0" data-original="#d9d9d9" class="" opacity="1"></path><path d="M0 0c0 10.416 8.521 18.937 18.937 18.937h-41.208c-10.415 0-18.936-8.521-18.936-18.937 0-10.415 8.521-18.937 18.936-18.937h41.208C8.521-18.937 0-10.415 0 0" style="fill-opacity:1;fill-rule:nonzero;stroke:none" transform="translate(41.207 406.764)" fill="#f0f0f0" data-original="#c6c6c6" class="" opacity="1"></path><path d="M0 0c0-10.415-8.522-18.937-18.937-18.937h-52.001c-10.416 0-18.937 8.522-18.937 18.937 0 10.416 8.521 18.937 18.937 18.937h52.001C-8.522 18.937 0 10.416 0 0" style="fill-opacity:1;fill-rule:nonzero;stroke:none" transform="translate(89.875 105.336)" fill="#f0f0f0" data-original="#d9d9d9" class="" opacity="1"></path><path d="M0 0c0-10.416-8.522-18.937-18.937-18.937h-52.001c-10.416 0-18.937 8.521-18.937 18.937 0 10.415 8.521 18.937 18.937 18.937h52.001C-8.522 18.937 0 10.415 0 0" style="fill-opacity:1;fill-rule:nonzero;stroke:none" transform="translate(89.875 205.813)" fill="#f0f0f0" data-original="#d9d9d9" class="" opacity="1"></path><path d="M0 0c0-10.415-8.522-18.937-18.937-18.937h-52.001c-10.416 0-18.937 8.522-18.937 18.937 0 10.415 8.521 18.937 18.937 18.937h52.001C-8.522 18.937 0 10.415 0 0" style="fill-opacity:1;fill-rule:nonzero;stroke:none" transform="translate(89.875 306.288)" fill="#f0f0f0" data-original="#d9d9d9" class="" opacity="1"></path><path d="M0 0h-191.549c-12.467 0-22.667 10.2-22.667 22.668v22.484c0 12.468 10.2 22.668 22.667 22.668H0c12.468 0 22.668-10.2 22.668-22.668V22.668C22.668 10.2 12.468 0 0 0" style="fill-opacity:1;fill-rule:nonzero;stroke:none" transform="translate(351.273 64.385)" fill="#f0f0f0" data-original="#f0f0f0" class="" opacity="1"></path><path d="M0 0c0-61.288-49.684-110.973-110.973-110.973-61.288 0-110.972 49.685-110.972 110.973 0 61.289 49.684 110.974 110.972 110.974C-49.684 110.974 0 61.289 0 0" style="fill-opacity:1;fill-rule:nonzero;stroke:none" transform="translate(366.472 343.577)" fill="#f0f0f0" data-original="#f0f0f0" class="" opacity="1"></path><path d="M0 0c0 89.152 49.162 110.974 49.162 110.974C-12.126 110.974-61.811 61.289-61.811 0c0-61.288 49.685-110.973 110.973-110.973C49.162-110.973 0-89.151 0 0" style="fill-opacity:1;fill-rule:nonzero;stroke:none" transform="translate(206.337 343.577)" fill="#f0f0f0" data-original="#d9d9d9" class="" opacity="1"></path><path d="M0 0v22.485c0 12.467 10.201 22.667 22.668 22.667h-68.794c-12.467 0-22.667-10.2-22.667-22.667V0c0-12.468 10.2-22.668 22.667-22.668h68.794C10.201-22.668 0-12.468 0 0" style="fill-opacity:1;fill-rule:nonzero;stroke:none" transform="translate(205.85 87.053)" fill="#f0f0f0" data-original="#d9d9d9" class="" opacity="1"></path><path d="m0 0 7.805-6.021c12.599-9.722 29.771-11.09 43.72-3.431 31.614 17.359 49.73 40.824 59.668 58.579 7.833 13.99 6.524 31.311-3.271 44.005l-6.442 8.348c-4.355 5.647-12.68 6.181-17.723 1.138l-9.885-9.885c-8.003-8.003-8.003-20.978 0-28.981l1.782-1.782c2.835-2.834 3.347-7.268 1.188-10.646-7.296-11.412-16.733-20.158-25.946-26.715-3.424-2.435-8.098-2.07-11.07.902l-2.097 2.097c-8.003 8.003-20.979 8.003-28.982 0l-9.885-9.884C-6.181 12.682-5.646 4.356 0 0" style="fill-opacity:1;fill-rule:nonzero;stroke:none" transform="translate(195.367 297.726)" fill="#6b7d8e" data-original="#6b7d8e" class=""></path><path d="m0 0 7.805-6.021a40 40 0 0 1 11.916-6.306c-3.988 11.603-7.01 25.546-8.199 42.239a20.582 20.582 0 0 1-2.775-2.304l-9.885-9.884C-6.181 12.681-5.646 4.356 0 0" style="fill-opacity:1;fill-rule:nonzero;stroke:none" transform="translate(195.367 297.726)" fill="#5f7080" data-original="#5f7080" class=""></path><path d="M0 0c0 10.415 8.521 18.937 18.937 18.937h-41.208c-10.415 0-18.936-8.522-18.936-18.937 0-10.415 8.521-18.937 18.936-18.937h41.208C8.521-18.937 0-10.415 0 0" style="fill-opacity:1;fill-rule:nonzero;stroke:none" transform="translate(41.207 306.288)" fill="#f0f0f0" data-original="#c6c6c6" class="" opacity="1"></path><path d="M0 0c0 10.415 8.521 18.937 18.937 18.937h-41.208c-10.415 0-18.936-8.522-18.936-18.937 0-10.416 8.521-18.937 18.936-18.937h41.208C8.521-18.937 0-10.416 0 0" style="fill-opacity:1;fill-rule:nonzero;stroke:none" transform="translate(41.207 205.813)" fill="#f0f0f0" data-original="#c6c6c6" class="" opacity="1"></path><path d="M0 0c0 10.415 8.521 18.937 18.937 18.937h-41.208c-10.415 0-18.936-8.522-18.936-18.937 0-10.416 8.521-18.937 18.936-18.937h41.208C8.521-18.937 0-10.416 0 0" style="fill-opacity:1;fill-rule:nonzero;stroke:none" transform="translate(41.207 105.337)" fill="#f0f0f0" data-original="#c6c6c6" class="" opacity="1"></path><path d="M0 0v-12.514" style="stroke-width:15;stroke-linecap:round;stroke-linejoin:round;stroke-miterlimit:10;stroke-dasharray:none;stroke-opacity:1" transform="translate(190.38 191.784)" fill="none" stroke="#495560" stroke-width="15" stroke-linecap="round" stroke-linejoin="round" stroke-miterlimit="10" stroke-dasharray="none" stroke-opacity="" data-original="#495560"></path><path d="M0 0v-12.514" style="stroke-width:15;stroke-linecap:round;stroke-linejoin:round;stroke-miterlimit:10;stroke-dasharray:none;stroke-opacity:1" transform="translate(320.618 191.784)" fill="none" stroke="#495560" stroke-width="15" stroke-linecap="round" stroke-linejoin="round" stroke-miterlimit="10" stroke-dasharray="none" stroke-opacity="" data-original="#495560"></path><path d="M0 0c4.174-4.79 10.315-7.82 17.168-7.82S30.161-4.79 34.336 0" style="stroke-width:15;stroke-linecap:round;stroke-linejoin:round;stroke-miterlimit:10;stroke-dasharray:none;stroke-opacity:1" transform="translate(238.331 179.644)" fill="none" stroke="#495560" stroke-width="15" stroke-linecap="round" stroke-linejoin="round" stroke-miterlimit="10" stroke-dasharray="none" stroke-opacity="" data-original="#495560"></path></g></g></svg>