<svg xmlns="http://www.w3.org/2000/svg" version="1.1" xmlns:xlink="http://www.w3.org/1999/xlink" width="512" height="512" x="0" y="0" viewBox="0 0 512.001 512.001" style="enable-background:new 0 0 512 512" xml:space="preserve" class=""><g><path d="m139.4 150.089-46.264 6.498A24.48 24.48 0 0 0 76.06 167.42l-29.996 45.818c-4.056 6.196 1.174 14.26 8.486 13.082l50.787-8.176 28.086 1.985 5.977-70.04zM361.911 372.6l-6.498 46.264a24.48 24.48 0 0 1-10.833 17.076l-45.818 29.996c-6.196 4.056-14.26-1.174-13.082-8.486l8.176-50.787-1.985-28.086 70.04-5.977zM502.5 32.204a29.55 29.55 0 0 0-22.703-22.703C441.2 1.245 347.993-12.438 265.39 24.1l95.981 126.53 126.53 95.981C524.44 164.007 510.757 70.799 502.5 32.204z" style="" fill="#84dccf" data-original="#49c3e0" class="" opacity="1"></path><path d="M502.473 32.097c-1.518-6.724-5.315-12.824-10.776-17.052l-.035-.028a29.521 29.521 0 0 0-11.187-5.346c.055.227.123.449.171.678 8.256 38.597 21.94 131.803-14.599 214.406a245.258 245.258 0 0 1-1.782 3.924l23.635 17.929c9.672-21.867 16.073-45.105 19.826-68.695 1.929-12.124 3.158-24.357 3.782-36.616.191-3.747.322-7.457.402-11.124.894-41.551-5.023-77.469-9.41-97.973-.008-.032-.019-.067-.027-.103z" style="" fill="#84dccf" data-original="#00a5c6" class="" opacity="1"></path><path d="M487.901 246.61 265.39 24.099c-32.631 14.431-63.623 36.707-88.922 70.255-40.381 53.533-63.839 104.406-79.758 144.812l75.347 103.212 100.776 72.912c40.406-15.917 91.278-39.377 144.812-79.758 33.549-25.299 55.825-56.291 70.256-88.922z" style="" fill="#000408" data-original="#da5b65" class="" opacity="1"></path><circle cx="277.036" cy="234.964" r="97.187" style="" fill="#fbf198" data-original="#ffcd38" class="" opacity="1"></circle><path d="M233.229 202.432a7.7 7.7 0 0 1-5.463-2.263 7.725 7.725 0 0 1-.001-10.926l7.607-7.608a7.725 7.725 0 0 1 10.926 0 7.725 7.725 0 0 1 .001 10.926l-7.607 7.608a7.704 7.704 0 0 1-5.463 2.263zM317.295 286.499a7.7 7.7 0 0 1-5.463-2.263 7.725 7.725 0 0 1-.001-10.926l7.607-7.608a7.725 7.725 0 0 1 10.926 0 7.725 7.725 0 0 1 .001 10.926l-7.607 7.608a7.704 7.704 0 0 1-5.463 2.263zM284.94 254.35c-7.161-.009-14.133-3.016-19.203-8.087-5.621-5.622-8.547-13.256-8.03-20.947.286-4.258 3.981-7.47 8.228-7.191a7.726 7.726 0 0 1 7.19 8.228c-.218 3.242 1.071 6.516 3.539 8.983 2.466 2.465 5.727 3.757 8.984 3.539 4.22-.284 7.94 2.934 8.226 7.192a7.728 7.728 0 0 1-7.193 8.227c-.58.038-1.161.057-1.741.056z" style="" fill="#3a484a" data-original="#3a484a" class=""></path><path d="M224.695 433.297c-66.465 131.53-204.457 58.465-204.457 58.465S-52.828 353.77 78.703 287.304l93.356 55.073 52.636 90.92z" style="" fill="#fbf198" data-original="#ffcd38" class="" opacity="1"></path><path d="m224.696 433.297-52.637-90.92-13.974-8.244 44.758 77.31c-53.03 104.94-151.586 79.644-189.268 65.129 3.678 9.548 6.664 15.189 6.664 15.189s137.991 73.067 204.457-58.464z" style="" fill="#fbf198" data-original="#e7b835" class="" opacity="1"></path><path d="M124.633 333.236C56.72 375.423 70.618 441.382 70.618 441.382s65.959 13.897 108.146-54.015l-6.706-44.989-47.425-9.142z" style="" fill="#000408" data-original="#da5b65" class="" opacity="1"></path><path d="M272.834 415.29c-18.491 7.283-34.778 12.992-48.139 18.008L78.703 287.305c5.017-13.361 10.724-29.649 18.008-48.139L272.834 415.29z" style="" fill="#84dccf" data-original="#49c3e0" class="" opacity="1"></path><path d="M453.172 302.144c14.064-16.507 25.877-35.518 34.728-55.534l-21.853-21.853c-14.431 32.631-36.707 63.623-70.255 88.922-53.533 40.381-104.406 63.84-144.812 79.758a902.16 902.16 0 0 1-5.426 2.116l27.28 19.737c14.873-5.86 31.168-12.745 48.489-21.117 35.405-17.111 68.823-37.035 99.783-61.307 11.671-9.149 22.448-19.433 32.066-30.722z" style="" fill="#000408" data-original="#c0344a" class="" opacity="1"></path><path d="m272.834 415.29-21.853-21.853c-18.491 7.283-34.778 12.992-48.139 18.008l21.853 21.853c5.582-2.095 11.679-4.314 18.229-6.715 9.13-3.347 19.144-7.052 29.91-11.293z" style="" fill="#84dccf" data-original="#00a5c6" class="" opacity="1"></path></g></svg>
