<svg width="48" height="48" viewBox="0 0 48 48" fill="none" xmlns="http://www.w3.org/2000/svg">
<g clip-path="url(#clip0_659_505)">
<path d="M40.8 0H7.2C3.22355 0 0 3.22355 0 7.2V40.8C0 44.7765 3.22355 48 7.2 48H40.8C44.7765 48 48 44.7765 48 40.8V7.2C48 3.22355 44.7765 0 40.8 0Z" fill="#84DCCF"/>
<path d="M18.6562 37.875C17.625 37.875 17.7188 37.5 17.4375 36.5625L14.4375 26.7188L37.4062 13.2188" fill="#F5F5F5"/>
<path d="M18.6562 37.875C19.3125 37.875 19.6875 37.5 20.1562 37.125L24.375 33.0938L19.125 29.9062" fill="#F5F5F5"/>
<path d="M19.125 29.9062L31.7813 39.1874C33.0938 40.0312 34.2188 39.5624 34.5938 37.8749L39.75 13.6874C40.2188 11.6249 38.9063 10.6874 37.5 11.3437L7.4063 22.9687C5.43755 23.7187 5.43755 24.9374 7.0313 25.4062L14.8125 27.8437L32.625 16.4999C33.4688 16.0312 34.2188 16.2187 33.6563 16.8749" fill="#F5F5F5"/>
</g>
<defs>
<clipPath id="clip0_659_505">
<rect width="48" height="48" fill="white"/>
</clipPath>
</defs>
</svg>
